<svg width="15" height="15" viewBox="0 0 15 15" fill="none" xmlns="http://www.w3.org/2000/svg">
<path d="M0.585 13.35C0.585 13.26 0.585 13.19 0.585 13.14C0.585 13.09 0.59 13.045 0.6 13.005C0.62 12.965 0.645 12.925 0.675 12.885C0.715 12.845 0.765 12.795 0.825 12.735C1.215 12.345 1.62 11.935 2.04 11.505C2.47 11.075 2.9 10.645 3.33 10.215C3.76 9.775 4.185 9.34 4.605 8.91C5.035 8.48 5.445 8.07 5.835 7.68C5.925 7.58 5.97 7.515 5.97 7.485C5.97 7.445 5.915 7.37 5.805 7.26L0.855 2.25C0.785 2.18 0.73 2.125 0.69 2.085C0.66 2.045 0.635 2.005 0.615 1.965C0.605 1.925 0.595 1.875 0.585 1.815C0.585 1.755 0.585 1.675 0.585 1.575V0.99C0.585 0.76 0.595 0.64 0.615 0.63C0.645 0.619999 0.735 0.694999 0.885 0.855L6.66 6.705C6.72 6.765 6.765 6.815 6.795 6.855C6.835 6.895 6.86 6.935 6.87 6.975C6.89 7.005 6.9 7.045 6.9 7.095C6.91 7.145 6.915 7.21 6.915 7.29V7.68C6.915 7.76 6.91 7.825 6.9 7.875C6.9 7.925 6.89 7.97 6.87 8.01C6.86 8.04 6.835 8.075 6.795 8.115C6.765 8.155 6.72 8.205 6.66 8.265L0.84 14.115C0.71 14.245 0.635 14.305 0.615 14.295C0.595 14.285 0.585 14.185 0.585 13.995V13.35ZM8.085 13.35C8.085 13.26 8.085 13.19 8.085 13.14C8.085 13.09 8.09 13.045 8.1 13.005C8.12 12.965 8.145 12.925 8.175 12.885C8.215 12.845 8.265 12.795 8.325 12.735C8.715 12.345 9.12 11.935 9.54 11.505C9.97 11.075 10.4 10.645 10.83 10.215C11.26 9.775 11.685 9.34 12.105 8.91C12.535 8.48 12.945 8.07 13.335 7.68C13.425 7.58 13.47 7.515 13.47 7.485C13.47 7.445 13.415 7.37 13.305 7.26L8.355 2.25C8.285 2.18 8.23 2.125 8.19 2.085C8.16 2.045 8.135 2.005 8.115 1.965C8.105 1.925 8.095 1.875 8.085 1.815C8.085 1.755 8.085 1.675 8.085 1.575V0.99C8.085 0.76 8.095 0.64 8.115 0.63C8.145 0.619999 8.235 0.694999 8.385 0.855L14.16 6.705C14.22 6.765 14.265 6.815 14.295 6.855C14.335 6.895 14.36 6.935 14.37 6.975C14.39 7.005 14.4 7.045 14.4 7.095C14.41 7.145 14.415 7.21 14.415 7.29V7.68C14.415 7.76 14.41 7.825 14.4 7.875C14.4 7.925 14.39 7.97 14.37 8.01C14.36 8.04 14.335 8.075 14.295 8.115C14.265 8.155 14.22 8.205 14.16 8.265L8.34 14.115C8.21 14.245 8.135 14.305 8.115 14.295C8.095 14.285 8.085 14.185 8.085 13.995V13.35Z" fill="black"/>
</svg>
