<svg width="25" height="25" viewBox="0 0 25 25" fill="none" xmlns="http://www.w3.org/2000/svg">
<path d="M12.1403 0.549395C12.4673 0.197599 12.9107 0 13.3729 0C13.8352 0 14.2785 0.197599 14.6055 0.549395L24.4899 11.1946C24.8165 11.5469 25 12.0243 25 12.5221C25 13.02 24.8165 13.4974 24.4899 13.8497L14.6055 24.4949C14.275 24.8271 13.8375 25.0081 13.3854 24.9997C12.9333 24.9913 12.5019 24.7941 12.1821 24.4498C11.8624 24.1055 11.6794 23.6408 11.6715 23.1539C11.6637 22.667 11.8318 22.1959 12.1403 21.8399L19.0477 14.4007L1.74429 14.4007C1.28168 14.4007 0.838011 14.2028 0.510893 13.8505C0.183775 13.4982 0 13.0204 0 12.5221C0 12.0239 0.183775 11.5461 0.510893 11.1938C0.838011 10.8415 1.28168 10.6436 1.74429 10.6436L19.0477 10.6436L12.1403 3.20444C11.8136 2.85221 11.6302 2.37474 11.6302 1.87692C11.6302 1.37909 11.8136 0.901627 12.1403 0.549395Z" fill="#333333"/>
</svg>
