<svg width="25" height="25" viewBox="0 0 25 25" fill="none" xmlns="http://www.w3.org/2000/svg">
<path d="M12.8597 24.4506C12.5327 24.8024 12.0893 25 11.6271 25C11.1648 25 10.7215 24.8024 10.3945 24.4506L0.510125 13.8054C0.183475 13.4531 0 12.9757 0 12.4779C0 11.98 0.183475 11.5026 0.510125 11.1503L10.3945 0.505102C10.725 0.172865 11.1625 -0.00813046 11.6146 0.000280552C12.0667 0.00869157 12.4981 0.205851 12.8179 0.550187C13.1376 0.894541 13.3206 1.35915 13.3285 1.84606C13.3363 2.33296 13.1682 2.80411 12.8597 3.16015L5.95232 10.5993H23.2557C23.7183 10.5993 24.162 10.7972 24.4891 11.1495C24.8162 11.5018 25 11.9796 25 12.4779C25 12.9761 24.8162 13.4539 24.4891 13.8062C24.162 14.1585 23.7183 14.3564 23.2557 14.3564H5.95232L12.8597 21.7956C13.1864 22.1478 13.3698 22.6253 13.3698 23.1231C13.3698 23.6209 13.1864 24.0984 12.8597 24.4506Z" fill="#333333"/>
</svg>
