<svg width="22" height="22" viewBox="0 0 22 22" fill="none" xmlns="http://www.w3.org/2000/svg">
<path d="M8.15307 4.40802C9.42004 2.13601 10.053 1 11 1C11.947 1 12.58 2.13601 13.8469 4.40802L14.1749 4.99603C14.5349 5.64203 14.7149 5.96503 14.9949 6.17803C15.2749 6.39103 15.6249 6.47003 16.3249 6.62804L16.9609 6.77204C19.4208 7.32904 20.6498 7.60704 20.9428 8.54805C21.2348 9.48805 20.3968 10.4691 18.7198 12.4301L18.2858 12.9371C17.8098 13.4941 17.5708 13.7731 17.4638 14.1171C17.3569 14.4621 17.3928 14.8341 17.4648 15.5771L17.5308 16.2541C17.7838 18.8711 17.9108 20.1791 17.1449 20.7601C16.3789 21.3411 15.2269 20.8111 12.925 19.7511L12.328 19.4771C11.674 19.1751 11.347 19.0251 11 19.0251C10.653 19.0251 10.326 19.1751 9.67203 19.4771L9.07604 19.7511C6.7731 20.8111 5.62113 21.3411 4.85614 20.7611C4.08916 20.1791 4.21616 18.8711 4.46915 16.2541L4.53515 15.5781C4.60715 14.8341 4.64315 14.4621 4.53515 14.1181C4.42915 13.7731 4.19016 13.4941 3.71417 12.9381L3.28018 12.4301C1.60322 10.4701 0.765241 9.48905 1.05723 8.54805C1.34923 7.60704 2.5802 7.32804 5.04014 6.77204L5.67613 6.62804C6.37511 6.47003 6.7241 6.39103 7.00509 6.17803C7.28609 5.96503 7.46508 5.64203 7.82507 4.99603L8.15307 4.40802Z" fill="#F3EB30" stroke="#F3EB30"/>
</svg>
