<svg width="22" height="22" viewBox="0 0 22 22" fill="none" xmlns="http://www.w3.org/2000/svg">
<path d="M8.48656 4.7414C9.75353 2.46938 10.3865 1.33337 11.3335 1.33337C12.2805 1.33337 12.9135 2.46938 14.1804 4.7414L14.5084 5.3294C14.8684 5.9754 15.0484 6.29841 15.3284 6.51141C15.6084 6.72441 15.9584 6.80341 16.6584 6.96141L17.2944 7.10541C19.7543 7.66241 20.9833 7.94042 21.2763 8.88142C21.5683 9.82143 20.7303 10.8024 19.0533 12.7634L18.6193 13.2705C18.1433 13.8275 17.9043 14.1065 17.7973 14.4505C17.6903 14.7955 17.7263 15.1675 17.7983 15.9105L17.8643 16.5875C18.1173 19.2045 18.2443 20.5125 17.4784 21.0935C16.7124 21.6745 15.5604 21.1445 13.2585 20.0845L12.6615 19.8105C12.0075 19.5085 11.6805 19.3585 11.3335 19.3585C10.9865 19.3585 10.6595 19.5085 10.0055 19.8105L9.40954 20.0845C7.1066 21.1445 5.95462 21.6745 5.18964 21.0945C4.42266 20.5125 4.54966 19.2045 4.80265 16.5875L4.86865 15.9115C4.94065 15.1675 4.97665 14.7955 4.86865 14.4515C4.76265 14.1065 4.52366 13.8275 4.04767 13.2715L3.61368 12.7634C1.93672 10.8034 1.09874 9.82243 1.39073 8.88142C1.68272 7.94042 2.91369 7.66141 5.37364 7.10541L6.00962 6.96141C6.7086 6.80341 7.0576 6.72441 7.33859 6.51141C7.61958 6.29841 7.79858 5.9754 8.15857 5.3294L8.48656 4.7414Z" stroke="black"/>
</svg>
