<svg width="84" height="33" viewBox="0 0 84 33" fill="none" xmlns="http://www.w3.org/2000/svg">
<path fill-rule="evenodd" clip-rule="evenodd" d="M6.77862 0.666876C7.04689 0.17799 7.70186 -0.104432 8.24152 0.0360685C8.78119 0.176569 9.0012 0.686788 8.73292 1.17567L5.68611 6.72798L11.7101 6.67665C12.1075 6.67326 12.4355 6.99264 12.4426 7.38999C12.446 7.57537 12.3789 7.74497 12.266 7.87351C12.2584 7.88923 12.2503 7.90493 12.2417 7.92061L8.78112 14.2269C8.51285 14.7158 7.85788 14.9982 7.31821 14.8577C6.77855 14.7172 6.55854 14.207 6.82681 13.7181L9.89255 8.13131L4.16167 8.18015C4.06714 8.18095 3.97654 8.16349 3.89325 8.13107C3.86506 8.12606 3.8371 8.11997 3.80945 8.11277C3.26979 7.97227 3.04978 7.46205 3.31805 6.97317L6.77862 0.666876Z" fill="#E8E251"/>
<rect width="1.89656" height="15.5007" rx="0.94828" transform="matrix(0.013627 0.999907 -0.999937 0.0112293 15.4998 12.8857)" fill="#AE8E8E"/>
<path fill-rule="evenodd" clip-rule="evenodd" d="M4.80512 26.5408C4.22819 26.5408 3.7605 27.0085 3.7605 27.5854V31.9443C3.7605 32.0306 3.77096 32.1145 3.79068 32.1947C3.85324 32.5158 4.07742 32.7786 4.37409 32.8962C4.5055 32.9558 4.65143 32.989 4.80512 32.989C4.89111 32.989 4.97468 32.9786 5.05463 32.959L17.4054 32.8203C17.929 32.8144 18.3478 32.3851 18.3406 31.8614C18.3335 31.3378 17.9032 30.918 17.3795 30.9239L5.84975 31.0534V27.5854C5.84975 27.0085 5.38205 26.5408 4.80512 26.5408Z" fill="#AE8E8E"/>
<rect width="1.89656" height="18.803" rx="0.94828" transform="matrix(0.013627 0.999907 -0.999937 0.0112293 43.0371 19.7134)" fill="#AE8E8E"/>
<path fill-rule="evenodd" clip-rule="evenodd" d="M80.6254 26.1615C80.6183 25.6378 80.188 25.2181 79.6643 25.2239L68.4309 25.3501C67.9072 25.356 67.4884 25.7853 67.4956 26.3089C67.5027 26.8326 67.933 27.2524 68.4567 27.2465L78.5556 27.1331V31.9444C78.5556 32.5214 79.0233 32.9891 79.6003 32.9891C80.1772 32.9891 80.6449 32.5214 80.6449 31.9444V26.4476C80.6449 26.3752 80.6375 26.3046 80.6235 26.2364C80.6251 26.2117 80.6258 26.1867 80.6254 26.1615Z" fill="#AE8E8E"/>
<path fill-rule="evenodd" clip-rule="evenodd" d="M38.2332 11.7714L27.2985 11.8942C26.7748 11.9001 26.3445 11.4804 26.3374 10.9567C26.3302 10.433 26.749 10.0037 27.2727 9.99785L39.1087 9.86494C39.1637 9.85598 39.2202 9.85132 39.2778 9.85132C39.3319 9.85132 39.385 9.85543 39.4369 9.86336C39.9313 9.89063 40.3274 10.2973 40.3343 10.7995C40.335 10.8553 40.3309 10.91 40.3224 10.9633L40.3224 18.2893C40.3224 18.8663 39.8547 19.334 39.2778 19.334C38.7009 19.334 38.2332 18.8663 38.2332 18.2893V11.7714Z" fill="#AE8E8E"/>
<path fill-rule="evenodd" clip-rule="evenodd" d="M55.782 9.89257C55.6942 9.86575 55.601 9.85132 55.5045 9.85132H46.1191C45.5954 9.85132 45.1708 10.2759 45.1708 10.7996C45.1708 11.3233 45.5954 11.7478 46.1191 11.7478H52.6073L48.2591 15.0175C47.8228 15.3457 47.7674 15.9386 48.1354 16.3419C48.3797 16.6097 48.7492 16.7265 49.0977 16.6788H52.3984L45.0737 22.1867C44.6373 22.5149 44.5819 23.1078 44.9499 23.5112C45.318 23.9145 45.9701 23.9754 46.4065 23.6473L52.4268 19.1202L56.2246 22.7663C56.6231 23.1489 57.286 23.1673 57.7052 22.8075C58.1244 22.4477 58.1412 21.8459 57.7427 21.4633L54.0392 17.9077L55.9676 16.4577C56.4039 16.1295 56.4593 15.5366 56.0913 15.1332C55.9507 14.9792 55.7686 14.875 55.5729 14.8235C55.4852 14.7967 55.3921 14.7823 55.2956 14.7823H51.847L56.1765 11.5267C56.6129 11.1985 56.6683 10.6056 56.3002 10.2023C56.1596 10.0482 55.9776 9.94411 55.782 9.89257Z" fill="#E8E251"/>
<path fill-rule="evenodd" clip-rule="evenodd" d="M39.3731 23.1378C39.8968 23.1319 40.3271 23.5516 40.3342 24.0753C40.3351 24.14 40.3295 24.2033 40.3179 24.2645C40.3209 24.2964 40.3224 24.3287 40.3224 24.3614V27.7721C40.3224 27.8499 40.3139 27.9258 40.2977 27.9988C40.3204 28.078 40.333 28.1614 40.3342 28.2477C40.3413 28.7714 39.9226 29.2006 39.3989 29.2065L28.4137 29.3299V31.0366L39.3731 30.9135C39.8968 30.9077 40.3271 31.3274 40.3342 31.8511C40.3413 32.3748 39.9226 32.804 39.3989 32.8099L27.6816 32.9415C27.583 32.9724 27.478 32.9891 27.3691 32.9891C27.0619 32.9891 26.7857 32.8565 26.5946 32.6454C26.5098 32.5551 26.4425 32.4483 26.398 32.3301C26.3505 32.2108 26.3245 32.0807 26.3245 31.9444V28.5338C26.3245 28.4774 26.3289 28.4221 26.3375 28.3681C26.3499 27.8613 26.7612 27.4518 27.2726 27.446L38.2331 27.3229V25.0472L27.2985 25.17C26.7748 25.1759 26.3445 24.7562 26.3373 24.2325C26.3302 23.7088 26.7489 23.2795 27.2726 23.2736L39.3731 23.1378Z" fill="#AE8E8E"/>
<path fill-rule="evenodd" clip-rule="evenodd" d="M18.5943 12.3169C18.0174 12.3169 17.5497 12.7846 17.5497 13.3615V25.4962C17.5497 26.0732 18.0174 26.5409 18.5943 26.5409C19.1712 26.5409 19.6389 26.0732 19.6389 25.4962V20.4448L21.0446 20.429C21.5683 20.4231 21.9871 19.9938 21.9799 19.4702C21.9728 18.9465 21.5425 18.5267 21.0188 18.5326L19.6389 18.5481V13.3615C19.6389 12.7846 19.1712 12.3169 18.5943 12.3169Z" fill="#AE8E8E"/>
<path fill-rule="evenodd" clip-rule="evenodd" d="M62.6774 10.7997C62.1004 10.7997 61.6327 11.2674 61.6327 11.8443V16.8686H57.3579C56.8342 16.8686 56.4097 17.2931 56.4097 17.8168C56.4097 18.3406 56.8342 18.7651 57.3579 18.7651H61.6327V23.979C61.6327 24.556 62.1004 25.0237 62.6774 25.0237C63.2543 25.0237 63.722 24.556 63.722 23.979V17.8259C63.722 17.8229 63.722 17.8199 63.722 17.8168C63.722 17.8138 63.722 17.8108 63.722 17.8078V11.8443C63.722 11.2674 63.2543 10.7997 62.6774 10.7997Z" fill="#AE8E8E"/>
<path fill-rule="evenodd" clip-rule="evenodd" d="M74.377 20.0927C73.8001 20.0927 73.3324 20.5603 73.3324 21.1373V21.91L66.3415 21.9885C65.8178 21.9944 65.3991 22.4237 65.4062 22.9474C65.4134 23.4711 65.8437 23.8908 66.3674 23.8849L82.2515 23.7066C82.7752 23.7007 83.1939 23.2714 83.1868 22.7477C83.1797 22.224 82.7493 21.8043 82.2257 21.8102L75.4217 21.8866V21.1373C75.4217 20.5603 74.954 20.0927 74.377 20.0927Z" fill="#AE8E8E"/>
<path fill-rule="evenodd" clip-rule="evenodd" d="M78.5558 9.85132C77.9788 9.85132 77.5111 10.319 77.5111 10.8959V13.4547H70.7292C70.6164 13.4547 70.5082 13.4744 70.4078 13.5106V10.8959C70.4078 10.319 69.9401 9.85132 69.3632 9.85132C68.7862 9.85132 68.3185 10.319 68.3185 10.8959V18.2893C68.3185 18.3057 68.3189 18.3219 68.3197 18.338C68.3189 18.3538 68.3185 18.3697 68.3185 18.3857C68.3185 18.9094 68.743 19.334 69.2667 19.334H69.3603L69.3632 19.334L69.366 19.334H78.5558H78.6522C79.1759 19.334 79.6004 18.9094 79.6004 18.3857C79.6004 18.3698 79.6 18.354 79.5992 18.3383C79.6 18.322 79.6004 18.3057 79.6004 18.2893V10.8959C79.6004 10.319 79.1327 9.85132 78.5558 9.85132ZM77.5111 17.4374V15.3513H70.7292C70.6164 15.3513 70.5082 15.3316 70.4078 15.2954V17.4374H77.5111Z" fill="#AE8E8E"/>
<path d="M13.3509 20.9093C13.3509 23.502 10.8986 25.6038 7.87358 25.6038C4.84853 25.6038 2.39624 23.502 2.39624 20.9093C2.39624 18.3166 4.84853 16.2148 7.87358 16.2148C10.8986 16.2148 13.3509 18.3166 13.3509 20.9093ZM4.58717 20.9093C4.58717 22.465 6.05855 23.726 7.87358 23.726C9.68861 23.726 11.16 22.465 11.16 20.9093C11.16 19.3537 9.68861 18.0926 7.87358 18.0926C6.05855 18.0926 4.58717 19.3537 4.58717 20.9093Z" fill="#AE8E8E"/>
<path d="M62.9892 28.3068C62.9892 30.8995 60.5369 33.0013 57.5119 33.0013C54.4868 33.0013 52.0345 30.8995 52.0345 28.3068C52.0345 25.7141 54.4868 23.6123 57.5119 23.6123C60.5369 23.6123 62.9892 25.7141 62.9892 28.3068ZM54.2255 28.3068C54.2255 29.8624 55.6969 31.1235 57.5119 31.1235C59.3269 31.1235 60.7983 29.8624 60.7983 28.3068C60.7983 26.7512 59.3269 25.4901 57.5119 25.4901C55.6969 25.4901 54.2255 26.7512 54.2255 28.3068Z" fill="#AE8E8E"/>
</svg>
